<?xml version="1.0" encoding="UTF-8"?>
<!DOCTYPE svg PUBLIC "-//W3C//DTD SVG 1.1//EN" "http://www.w3.org/Graphics/SVG/1.1/DTD/svg11.dtd">
<svg xmlns="http://www.w3.org/2000/svg" version="1.1" width="1024px" height="1024px" style="shape-rendering:geometricPrecision; text-rendering:geometricPrecision; image-rendering:optimizeQuality; fill-rule:evenodd; clip-rule:evenodd" xmlns:xlink="http://www.w3.org/1999/xlink">
<g><path style="opacity:0.997" fill="#010000" d="M 479.5,-0.5 C 500.5,-0.5 521.5,-0.5 542.5,-0.5C 701.769,13.0337 829.602,83.0337 926,209.5C 983.754,290.255 1016.25,380.255 1023.5,479.5C 1023.5,500.5 1023.5,521.5 1023.5,542.5C 1009.97,701.769 939.966,829.602 813.5,926C 732.745,983.754 642.745,1016.25 543.5,1023.5C 522.5,1023.5 501.5,1023.5 480.5,1023.5C 321.231,1009.97 193.398,939.966 97,813.5C 39.2455,732.745 6.74551,642.745 -0.5,543.5C -0.5,522.5 -0.5,501.5 -0.5,480.5C 13.0337,321.231 83.0337,193.398 209.5,97C 290.255,39.2455 380.255,6.74551 479.5,-0.5 Z"/></g>
<g><path style="opacity:1" fill="#080400" d="M 354.5,260.5 C 356.696,261.763 359.03,262.763 361.5,263.5C 363,263.547 364,262.881 364.5,261.5C 395.159,260.5 425.826,260.167 456.5,260.5C 456.5,261.833 456.5,263.167 456.5,264.5C 467.167,264.5 477.833,264.5 488.5,264.5C 488.5,265.833 488.5,267.167 488.5,268.5C 503.833,268.5 519.167,268.5 534.5,268.5C 534.5,267.167 534.5,265.833 534.5,264.5C 545.167,264.5 555.833,264.5 566.5,264.5C 566.5,263.167 566.5,261.833 566.5,260.5C 600.5,260.5 634.5,260.5 668.5,260.5C 668.5,261.833 668.5,263.167 668.5,264.5C 673.833,264.5 679.167,264.5 684.5,264.5C 684.5,265.833 684.5,267.167 684.5,268.5C 691.167,268.5 697.833,268.5 704.5,268.5C 704.5,269.833 704.5,271.167 704.5,272.5C 708.5,272.5 712.5,272.5 716.5,272.5C 716.5,273.833 716.5,275.167 716.5,276.5C 720.5,276.5 724.5,276.5 728.5,276.5C 728.5,277.833 728.5,279.167 728.5,280.5C 731.167,280.5 733.833,280.5 736.5,280.5C 736.5,281.833 736.5,283.167 736.5,284.5C 739.167,284.5 741.833,284.5 744.5,284.5C 744.5,285.833 744.5,287.167 744.5,288.5C 747.167,288.5 749.833,288.5 752.5,288.5C 752.5,289.833 752.5,291.167 752.5,292.5C 753.833,292.5 755.167,292.5 756.5,292.5C 756.5,293.833 756.5,295.167 756.5,296.5C 757.833,296.5 759.167,296.5 760.5,296.5C 760.5,297.833 760.5,299.167 760.5,300.5C 763.167,300.5 765.833,300.5 768.5,300.5C 768.5,301.833 768.5,303.167 768.5,304.5C 769.833,304.5 771.167,304.5 772.5,304.5C 772.5,305.833 772.5,307.167 772.5,308.5C 773.833,308.5 775.167,308.5 776.5,308.5C 776.5,309.833 776.5,311.167 776.5,312.5C 777.833,312.5 779.167,312.5 780.5,312.5C 780.5,313.833 780.5,315.167 780.5,316.5C 781.833,316.5 783.167,316.5 784.5,316.5C 784.5,319.167 784.5,321.833 784.5,324.5C 787.167,324.5 789.833,324.5 792.5,324.5C 792.5,327.167 792.5,329.833 792.5,332.5C 793.833,332.5 795.167,332.5 796.5,332.5C 796.5,333.833 796.5,335.167 796.5,336.5C 797.833,336.5 799.167,336.5 800.5,336.5C 800.5,337.833 800.5,339.167 800.5,340.5C 801.833,340.5 803.167,340.5 804.5,340.5C 803.495,347.146 803.495,353.813 804.5,360.5C 805.833,360.5 807.167,360.5 808.5,360.5C 808.5,361.833 808.5,363.167 808.5,364.5C 809.833,364.5 811.167,364.5 812.5,364.5C 812.5,367.167 812.5,369.833 812.5,372.5C 813.833,372.5 815.167,372.5 816.5,372.5C 816.5,377.833 816.5,383.167 816.5,388.5C 817.833,388.5 819.167,388.5 820.5,388.5C 820.5,389.833 820.5,391.167 820.5,392.5C 821.833,392.5 823.167,392.5 824.5,392.5C 824.5,401.833 824.5,411.167 824.5,420.5C 827.167,420.5 829.833,420.5 832.5,420.5C 832.5,423.167 832.5,425.833 832.5,428.5C 833.833,428.5 835.167,428.5 836.5,428.5C 836.5,482.5 836.5,536.5 836.5,590.5C 835.167,590.5 833.833,590.5 832.5,590.5C 832.5,594.5 832.5,598.5 832.5,602.5C 831.167,602.5 829.833,602.5 828.5,602.5C 828.5,606.5 828.5,610.5 828.5,614.5C 827.167,614.5 825.833,614.5 824.5,614.5C 824.5,619.833 824.5,625.167 824.5,630.5C 823.167,630.5 821.833,630.5 820.5,630.5C 820.5,633.167 820.5,635.833 820.5,638.5C 819.167,638.5 817.833,638.5 816.5,638.5C 816.5,641.167 816.5,643.833 816.5,646.5C 815.167,646.5 813.833,646.5 812.5,646.5C 812.5,650.5 812.5,654.5 812.5,658.5C 811.167,658.5 809.833,658.5 808.5,658.5C 808.5,659.833 808.5,661.167 808.5,662.5C 807.167,662.5 805.833,662.5 804.5,662.5C 804.5,665.167 804.5,667.833 804.5,670.5C 801.833,670.5 799.167,670.5 796.5,670.5C 796.5,673.167 796.5,675.833 796.5,678.5C 795.167,678.5 793.833,678.5 792.5,678.5C 792.5,679.833 792.5,681.167 792.5,682.5C 791.167,682.5 789.833,682.5 788.5,682.5C 788.5,683.833 788.5,685.167 788.5,686.5C 787.167,686.5 785.833,686.5 784.5,686.5C 782.192,692.906 780.692,699.573 780,706.5C 778.285,708.935 777.118,711.602 776.5,714.5C 775.167,714.5 773.833,714.5 772.5,714.5C 772.5,715.833 772.5,717.167 772.5,718.5C 771.167,718.5 769.833,718.5 768.5,718.5C 768.5,719.833 768.5,721.167 768.5,722.5C 767.167,722.5 765.833,722.5 764.5,722.5C 764.5,723.833 764.5,725.167 764.5,726.5C 763.167,726.5 761.833,726.5 760.5,726.5C 760.5,727.833 760.5,729.167 760.5,730.5C 759.167,730.5 757.833,730.5 756.5,730.5C 756.5,731.833 756.5,733.167 756.5,734.5C 753.833,734.5 751.167,734.5 748.5,734.5C 748.5,735.833 748.5,737.167 748.5,738.5C 747.167,738.5 745.833,738.5 744.5,738.5C 744.5,739.833 744.5,741.167 744.5,742.5C 741.833,742.5 739.167,742.5 736.5,742.5C 736.5,743.833 736.5,745.167 736.5,746.5C 733.833,746.5 731.167,746.5 728.5,746.5C 728.5,747.833 728.5,749.167 728.5,750.5C 724.5,750.5 720.5,750.5 716.5,750.5C 716.5,751.833 716.5,753.167 716.5,754.5C 712.5,754.5 708.5,754.5 704.5,754.5C 704.5,755.833 704.5,757.167 704.5,758.5C 690.24,762.024 677.24,759.524 665.5,751C 653.833,750.333 642.167,750.333 630.5,751C 629.027,751.71 628.36,752.876 628.5,754.5C 622.063,755.81 615.73,757.644 609.5,760C 596.406,763.405 583.406,763.072 570.5,759C 530.501,758.5 490.501,758.333 450.5,758.5C 450.5,757.167 450.5,755.833 450.5,754.5C 444.132,754.17 437.798,754.504 431.5,755.5C 429.229,760.314 427.562,765.314 426.5,770.5C 423.833,770.5 421.167,770.5 418.5,770.5C 418.5,769.167 418.5,767.833 418.5,766.5C 397.167,766.5 375.833,766.5 354.5,766.5C 354.5,765.167 354.5,763.833 354.5,762.5C 347.833,762.5 341.167,762.5 334.5,762.5C 334.5,761.167 334.5,759.833 334.5,758.5C 327.833,758.5 321.167,758.5 314.5,758.5C 314.5,757.167 314.5,755.833 314.5,754.5C 310.5,754.5 306.5,754.5 302.5,754.5C 302.5,753.167 302.5,751.833 302.5,750.5C 299.833,750.5 297.167,750.5 294.5,750.5C 294.5,749.167 294.5,747.833 294.5,746.5C 291.833,746.5 289.167,746.5 286.5,746.5C 286.5,745.167 286.5,743.833 286.5,742.5C 283.833,742.5 281.167,742.5 278.5,742.5C 278.001,738.51 277.501,734.51 277,730.5C 270.426,724.596 264.592,718.096 259.5,711C 257.866,710.506 256.199,710.34 254.5,710.5C 254.5,709.167 254.5,707.833 254.5,706.5C 253.167,706.5 251.833,706.5 250.5,706.5C 250.5,705.167 250.5,703.833 250.5,702.5C 249.167,702.5 247.833,702.5 246.5,702.5C 246.5,701.167 246.5,699.833 246.5,698.5C 245.167,698.5 243.833,698.5 242.5,698.5C 242.5,695.833 242.5,693.167 242.5,690.5C 239.833,690.5 237.167,690.5 234.5,690.5C 234.5,687.833 234.5,685.167 234.5,682.5C 233.167,682.5 231.833,682.5 230.5,682.5C 230.5,681.167 230.5,679.833 230.5,678.5C 229.167,678.5 227.833,678.5 226.5,678.5C 226.5,677.167 226.5,675.833 226.5,674.5C 225.167,674.5 223.833,674.5 222.5,674.5C 222.5,673.167 222.5,671.833 222.5,670.5C 221.167,670.5 219.833,670.5 218.5,670.5C 218.5,667.833 218.5,665.167 218.5,662.5C 217.167,662.5 215.833,662.5 214.5,662.5C 214.5,661.167 214.5,659.833 214.5,658.5C 213.167,658.5 211.833,658.5 210.5,658.5C 210.5,655.833 210.5,653.167 210.5,650.5C 209.167,650.5 207.833,650.5 206.5,650.5C 206.5,647.833 206.5,645.167 206.5,642.5C 205.167,642.5 203.833,642.5 202.5,642.5C 202.5,638.5 202.5,634.5 202.5,630.5C 201.167,630.5 199.833,630.5 198.5,630.5C 198.5,629.167 198.5,627.833 198.5,626.5C 197.167,626.5 195.833,626.5 194.5,626.5C 194.5,618.5 194.5,610.5 194.5,602.5C 193.167,602.5 191.833,602.5 190.5,602.5C 190.5,601.167 190.5,599.833 190.5,598.5C 189.167,598.5 187.833,598.5 186.5,598.5C 186.5,590.5 186.5,582.5 186.5,574.5C 185.167,574.5 183.833,574.5 182.5,574.5C 182.5,540.5 182.5,506.5 182.5,472.5C 183.833,472.5 185.167,472.5 186.5,472.5C 186.5,456.5 186.5,440.5 186.5,424.5C 187.833,424.5 189.167,424.5 190.5,424.5C 190.5,423.167 190.5,421.833 190.5,420.5C 191.833,420.5 193.167,420.5 194.5,420.5C 194.5,412.5 194.5,404.5 194.5,396.5C 195.833,396.5 197.167,396.5 198.5,396.5C 198.5,395.167 198.5,393.833 198.5,392.5C 199.5,392.5 200.5,392.5 201.5,392.5C 200.506,386.549 199.84,380.549 199.5,374.5C 200.321,368.45 201.321,362.45 202.5,356.5C 203.833,356.5 205.167,356.5 206.5,356.5C 206.5,355.167 206.5,353.833 206.5,352.5C 207.833,352.5 209.167,352.5 210.5,352.5C 210.5,349.833 210.5,347.167 210.5,344.5C 211.833,344.5 213.167,344.5 214.5,344.5C 214.5,343.167 214.5,341.833 214.5,340.5C 215.833,340.5 217.167,340.5 218.5,340.5C 218.5,339.167 218.5,337.833 218.5,336.5C 219.833,336.5 221.167,336.5 222.5,336.5C 222.5,335.167 222.5,333.833 222.5,332.5C 223.833,332.5 225.167,332.5 226.5,332.5C 226.5,331.167 226.5,329.833 226.5,328.5C 227.833,328.5 229.167,328.5 230.5,328.5C 230.5,327.167 230.5,325.833 230.5,324.5C 231.833,324.5 233.167,324.5 234.5,324.5C 234.5,323.167 234.5,321.833 234.5,320.5C 235.833,320.5 237.167,320.5 238.5,320.5C 238.5,319.167 238.5,317.833 238.5,316.5C 239.833,316.5 241.167,316.5 242.5,316.5C 242.5,315.167 242.5,313.833 242.5,312.5C 243.833,312.5 245.167,312.5 246.5,312.5C 246.5,311.167 246.5,309.833 246.5,308.5C 247.833,308.5 249.167,308.5 250.5,308.5C 250.5,307.167 250.5,305.833 250.5,304.5C 251.833,304.5 253.167,304.5 254.5,304.5C 254.5,303.167 254.5,301.833 254.5,300.5C 255.833,300.5 257.167,300.5 258.5,300.5C 258.5,299.167 258.5,297.833 258.5,296.5C 261.167,296.5 263.833,296.5 266.5,296.5C 266.5,295.167 266.5,293.833 266.5,292.5C 267.833,292.5 269.167,292.5 270.5,292.5C 270.5,291.167 270.5,289.833 270.5,288.5C 273.167,288.5 275.833,288.5 278.5,288.5C 278.5,287.167 278.5,285.833 278.5,284.5C 281.167,284.5 283.833,284.5 286.5,284.5C 286.5,283.167 286.5,281.833 286.5,280.5C 289.167,280.5 291.833,280.5 294.5,280.5C 294.5,279.167 294.5,277.833 294.5,276.5C 298.5,276.5 302.5,276.5 306.5,276.5C 306.5,275.167 306.5,273.833 306.5,272.5C 310.5,272.5 314.5,272.5 318.5,272.5C 318.5,271.167 318.5,269.833 318.5,268.5C 323.833,268.5 329.167,268.5 334.5,268.5C 334.5,267.167 334.5,265.833 334.5,264.5C 341.167,264.5 347.833,264.5 354.5,264.5C 354.5,263.167 354.5,261.833 354.5,260.5 Z"/></g>
<g><path style="opacity:1" fill="#0e0800" d="M 390.5,308.5 C 401.833,308.5 413.167,308.5 424.5,308.5C 424.5,309.833 424.5,311.167 424.5,312.5C 436.5,312.5 448.5,312.5 460.5,312.5C 460.5,313.833 460.5,315.167 460.5,316.5C 475.167,316.5 489.833,316.5 504.5,316.5C 504.5,317.833 504.5,319.167 504.5,320.5C 509.167,320.5 513.833,320.5 518.5,320.5C 518.5,319.167 518.5,317.833 518.5,316.5C 533.167,316.5 547.833,316.5 562.5,316.5C 562.5,315.167 562.5,313.833 562.5,312.5C 571.833,312.5 581.167,312.5 590.5,312.5C 590.5,311.167 590.5,309.833 590.5,308.5C 597.833,308.5 605.167,308.5 612.5,308.5C 612.5,309.833 612.5,311.167 612.5,312.5C 617.167,312.5 621.833,312.5 626.5,312.5C 626.5,311.167 626.5,309.833 626.5,308.5C 628.5,308.5 630.5,308.5 632.5,308.5C 632.5,309.833 632.5,311.167 632.5,312.5C 647.167,312.5 661.833,312.5 676.5,312.5C 676.5,313.833 676.5,315.167 676.5,316.5C 681.833,316.5 687.167,316.5 692.5,316.5C 692.5,317.833 692.5,319.167 692.5,320.5C 696.5,320.5 700.5,320.5 704.5,320.5C 704.5,321.833 704.5,323.167 704.5,324.5C 709.833,324.5 715.167,324.5 720.5,324.5C 720.5,325.833 720.5,327.167 720.5,328.5C 723.167,328.5 725.833,328.5 728.5,328.5C 728.5,329.833 728.5,331.167 728.5,332.5C 731.167,332.5 733.833,332.5 736.5,332.5C 736.5,333.833 736.5,335.167 736.5,336.5C 739.167,336.5 741.833,336.5 744.5,336.5C 744.5,337.833 744.5,339.167 744.5,340.5C 747.167,340.5 749.833,340.5 752.5,340.5C 752.5,341.833 752.5,343.167 752.5,344.5C 753.833,344.5 755.167,344.5 756.5,344.5C 756.5,345.833 756.5,347.167 756.5,348.5C 757.833,348.5 759.167,348.5 760.5,348.5C 760.5,349.833 760.5,351.167 760.5,352.5C 761.833,352.5 763.167,352.5 764.5,352.5C 764.5,353.833 764.5,355.167 764.5,356.5C 765.833,356.5 767.167,356.5 768.5,356.5C 768.5,359.167 768.5,361.833 768.5,364.5C 769.833,364.5 771.167,364.5 772.5,364.5C 772.5,365.833 772.5,367.167 772.5,368.5C 773.833,368.5 775.167,368.5 776.5,368.5C 776.5,372.5 776.5,376.5 776.5,380.5C 777.833,380.5 779.167,380.5 780.5,380.5C 780.5,381.833 780.5,383.167 780.5,384.5C 781.833,384.5 783.167,384.5 784.5,384.5C 784.5,385.833 784.5,387.167 784.5,388.5C 785.833,388.5 787.167,388.5 788.5,388.5C 788.013,396.128 788.68,403.628 790.5,411C 789.6,415.801 788.933,420.634 788.5,425.5C 790.442,437.484 792.275,449.484 794,461.5C 795.139,490.16 795.472,518.827 795,547.5C 792.799,574.846 790.465,602.179 788,629.5C 786.989,630.337 785.822,630.67 784.5,630.5C 784.5,633.167 784.5,635.833 784.5,638.5C 783.167,638.5 781.833,638.5 780.5,638.5C 780.5,641.167 780.5,643.833 780.5,646.5C 779.167,646.5 777.833,646.5 776.5,646.5C 776.5,649.167 776.5,651.833 776.5,654.5C 775.167,654.5 773.833,654.5 772.5,654.5C 772.5,655.833 772.5,657.167 772.5,658.5C 771.167,658.5 769.833,658.5 768.5,658.5C 768.5,661.167 768.5,663.833 768.5,666.5C 767.167,666.5 765.833,666.5 764.5,666.5C 764.5,667.833 764.5,669.167 764.5,670.5C 763.167,670.5 761.833,670.5 760.5,670.5C 760.5,671.833 760.5,673.167 760.5,674.5C 759.167,674.5 757.833,674.5 756.5,674.5C 756.5,675.833 756.5,677.167 756.5,678.5C 755.167,678.5 753.833,678.5 752.5,678.5C 752.5,679.833 752.5,681.167 752.5,682.5C 749.833,682.5 747.167,682.5 744.5,682.5C 744.5,683.833 744.5,685.167 744.5,686.5C 741.833,686.5 739.167,686.5 736.5,686.5C 736.5,687.833 736.5,689.167 736.5,690.5C 735.167,690.5 733.833,690.5 732.5,690.5C 732.5,691.833 732.5,693.167 732.5,694.5C 728.5,694.5 724.5,694.5 720.5,694.5C 720.5,695.833 720.5,697.167 720.5,698.5C 715.167,698.5 709.833,698.5 704.5,698.5C 704.5,699.833 704.5,701.167 704.5,702.5C 703.167,702.5 701.833,702.5 700.5,702.5C 700.5,703.833 700.5,705.167 700.5,706.5C 693.833,706.5 687.167,706.5 680.5,706.5C 680.5,707.833 680.5,709.167 680.5,710.5C 671.167,710.5 661.833,710.5 652.5,710.5C 652.5,711.833 652.5,713.167 652.5,714.5C 632.5,714.5 612.5,714.5 592.5,714.5C 592.5,715.833 592.5,717.167 592.5,718.5C 579.167,718.5 565.833,718.5 552.5,718.5C 552.5,719.833 552.5,721.167 552.5,722.5C 525.167,722.5 497.833,722.5 470.5,722.5C 470.5,721.167 470.5,719.833 470.5,718.5C 457.167,718.5 443.833,718.5 430.5,718.5C 430.5,717.167 430.5,715.833 430.5,714.5C 407.833,714.5 385.167,714.5 362.5,714.5C 362.5,713.167 362.5,711.833 362.5,710.5C 353.167,710.5 343.833,710.5 334.5,710.5C 334.5,709.167 334.5,707.833 334.5,706.5C 330.5,706.5 326.5,706.5 322.5,706.5C 322.5,705.167 322.5,703.833 322.5,702.5C 319.833,702.5 317.167,702.5 314.5,702.5C 314.5,701.167 314.5,699.833 314.5,698.5C 309.167,698.5 303.833,698.5 298.5,698.5C 298.5,697.167 298.5,695.833 298.5,694.5C 295.833,694.5 293.167,694.5 290.5,694.5C 290.5,693.167 290.5,691.833 290.5,690.5C 289.167,690.5 287.833,690.5 286.5,690.5C 286.5,689.167 286.5,687.833 286.5,686.5C 282.5,686.5 278.5,686.5 274.5,686.5C 274.5,685.167 274.5,683.833 274.5,682.5C 273.167,682.5 271.833,682.5 270.5,682.5C 270.5,681.167 270.5,679.833 270.5,678.5C 269.167,678.5 267.833,678.5 266.5,678.5C 266.5,677.167 266.5,675.833 266.5,674.5C 265.167,674.5 263.833,674.5 262.5,674.5C 262.5,673.167 262.5,671.833 262.5,670.5C 261.167,670.5 259.833,670.5 258.5,670.5C 258.5,669.167 258.5,667.833 258.5,666.5C 257.167,666.5 255.833,666.5 254.5,666.5C 254.5,665.167 254.5,663.833 254.5,662.5C 253.167,662.5 251.833,662.5 250.5,662.5C 250.5,661.167 250.5,659.833 250.5,658.5C 249.5,658.5 248.5,658.5 247.5,658.5C 248.5,649.162 249.5,639.828 250.5,630.5C 249.167,630.5 247.833,630.5 246.5,630.5C 246.5,627.833 246.5,625.167 246.5,622.5C 245.167,622.5 243.833,622.5 242.5,622.5C 242.5,615.833 242.5,609.167 242.5,602.5C 241.167,602.5 239.833,602.5 238.5,602.5C 238.5,599.833 238.5,597.167 238.5,594.5C 237.167,594.5 235.833,594.5 234.5,594.5C 234.667,561.832 234.5,529.165 234,496.5C 231.056,489.113 229.389,481.447 229,473.5C 228.209,462.139 228.376,450.806 229.5,439.5C 228.336,435.827 226.169,432.827 223,430.5C 222.502,427.183 222.335,423.85 222.5,420.5C 223.833,420.5 225.167,420.5 226.5,420.5C 226.5,417.833 226.5,415.167 226.5,412.5C 227.833,412.5 229.167,412.5 230.5,412.5C 230.5,411.167 230.5,409.833 230.5,408.5C 231.833,408.5 233.167,408.5 234.5,408.5C 234.5,401.833 234.5,395.167 234.5,388.5C 235.833,388.5 237.167,388.5 238.5,388.5C 238.5,385.833 238.5,383.167 238.5,380.5C 239.833,380.5 241.167,380.5 242.5,380.5C 242.5,377.833 242.5,375.167 242.5,372.5C 243.833,372.5 245.167,372.5 246.5,372.5C 246.5,369.833 246.5,367.167 246.5,364.5C 247.833,364.5 249.167,364.5 250.5,364.5C 250.5,363.167 250.5,361.833 250.5,360.5C 251.833,360.5 253.167,360.5 254.5,360.5C 254.5,359.167 254.5,357.833 254.5,356.5C 255.833,356.5 257.167,356.5 258.5,356.5C 258.5,355.167 258.5,353.833 258.5,352.5C 259.833,352.5 261.167,352.5 262.5,352.5C 262.5,351.167 262.5,349.833 262.5,348.5C 263.833,348.5 265.167,348.5 266.5,348.5C 266.5,347.167 266.5,345.833 266.5,344.5C 267.833,344.5 269.167,344.5 270.5,344.5C 270.5,343.167 270.5,341.833 270.5,340.5C 271.833,340.5 273.167,340.5 274.5,340.5C 274.5,339.167 274.5,337.833 274.5,336.5C 278.5,336.5 282.5,336.5 286.5,336.5C 286.5,335.167 286.5,333.833 286.5,332.5C 287.833,332.5 289.167,332.5 290.5,332.5C 290.5,331.167 290.5,329.833 290.5,328.5C 294.5,328.5 298.5,328.5 302.5,328.5C 302.5,327.167 302.5,325.833 302.5,324.5C 306.5,324.5 310.5,324.5 314.5,324.5C 314.5,323.167 314.5,321.833 314.5,320.5C 318.5,320.5 322.5,320.5 326.5,320.5C 326.5,319.167 326.5,317.833 326.5,316.5C 333.167,316.5 339.833,316.5 346.5,316.5C 346.5,315.167 346.5,313.833 346.5,312.5C 361.167,312.5 375.833,312.5 390.5,312.5C 390.5,311.167 390.5,309.833 390.5,308.5 Z"/></g>
<g><path style="opacity:1" fill="#0c0c0b" d="M 453.5,373.5 C 460.98,395.109 468.98,416.442 477.5,437.5C 488.424,468.687 499.924,499.687 512,530.5C 522.847,500.812 533.68,471.146 544.5,441.5C 553.062,419.353 561.396,397.02 569.5,374.5C 571.449,369.923 573.449,365.256 575.5,360.5C 576.025,359.808 576.692,359.308 577.5,359C 636.5,358.333 695.5,358.333 754.5,359C 756.708,359.936 758.042,361.602 758.5,364C 757.668,463.43 757.168,562.93 757,662.5C 756.5,663 756,663.5 755.5,664C 718.167,664.667 680.833,664.667 643.5,664C 642.584,663.626 641.75,663.126 641,662.5C 640.667,594.833 640.333,527.167 640,459.5C 638.961,460.244 638.461,461.244 638.5,462.5C 621.637,507.756 604.97,553.09 588.5,598.5C 580.462,618.937 572.796,639.604 565.5,660.5C 564.684,662.144 563.35,663.31 561.5,664C 527.833,664.667 494.167,664.667 460.5,664C 459.627,662.955 458.627,662.122 457.5,661.5C 450.116,640.398 442.449,619.398 434.5,598.5C 418.03,553.09 401.363,507.756 384.5,462.5C 384.013,461.527 383.513,460.527 383,459.5C 382.667,527.167 382.333,594.833 382,662.5C 381.25,663.126 380.416,663.626 379.5,664C 342.167,664.667 304.833,664.667 267.5,664C 267,663.5 266.5,663 266,662.5C 265.333,561.833 265.333,461.167 266,360.5C 266.75,359.874 267.584,359.374 268.5,359C 327.5,358.333 386.5,358.333 445.5,359C 446.416,359.374 447.25,359.874 448,360.5C 449.566,365.056 451.399,369.39 453.5,373.5 Z"/></g>
<g><path style="opacity:1" fill="#fefefe" d="M 645.5,659.5 C 645.833,584.164 645.5,508.83 644.5,433.5C 643.702,433.957 643.369,434.624 643.5,435.5C 615.966,510.102 588.633,584.768 561.5,659.5C 528.167,659.5 494.833,659.5 461.5,659.5C 434.367,584.768 407.034,510.102 379.5,435.5C 379.631,434.624 379.298,433.957 378.5,433.5C 377.5,508.83 377.167,584.164 377.5,659.5C 341.5,659.5 305.5,659.5 269.5,659.5C 269.5,560.833 269.5,462.167 269.5,363.5C 327.834,363.333 386.168,363.5 444.5,364C 467.005,423.517 489.505,483.017 512,542.5C 533.975,482.906 556.142,423.406 578.5,364C 636.832,363.5 695.166,363.333 753.5,363.5C 753.5,462.167 753.5,560.833 753.5,659.5C 717.5,659.5 681.5,659.5 645.5,659.5 Z"/></g>
<g><path style="opacity:1" fill="#150c00" d="M 569.5,374.5 C 561.396,397.02 553.062,419.353 544.5,441.5C 543.432,440.566 542.099,440.232 540.5,440.5C 539.833,435.167 539.167,435.167 538.5,440.5C 520.5,440.5 502.5,440.5 484.5,440.5C 484.5,439.167 484.5,437.833 484.5,436.5C 481.941,436.198 479.607,436.532 477.5,437.5C 468.98,416.442 460.98,395.109 453.5,373.5C 462.318,372.507 471.318,372.173 480.5,372.5C 480.5,373.833 480.5,375.167 480.5,376.5C 503.833,376.5 527.167,376.5 550.5,376.5C 550.5,375.167 550.5,373.833 550.5,372.5C 557.255,371.877 563.588,372.544 569.5,374.5 Z"/></g>
<g><path style="opacity:1" fill="#e7e7e7" d="M 379.5,435.5 C 378.833,510.167 378.167,584.833 377.5,659.5C 377.167,584.164 377.5,508.83 378.5,433.5C 379.298,433.957 379.631,434.624 379.5,435.5 Z"/></g>
<g><path style="opacity:1" fill="#e7e7e7" d="M 645.5,659.5 C 644.833,584.833 644.167,510.167 643.5,435.5C 643.369,434.624 643.702,433.957 644.5,433.5C 645.5,508.83 645.833,584.164 645.5,659.5 Z"/></g>
<g><path style="opacity:1" fill="#1a0f00" d="M 544.5,441.5 C 533.68,471.146 522.847,500.812 512,530.5C 499.924,499.687 488.424,468.687 477.5,437.5C 479.607,436.532 481.941,436.198 484.5,436.5C 484.5,437.833 484.5,439.167 484.5,440.5C 502.5,440.5 520.5,440.5 538.5,440.5C 539.167,435.167 539.833,435.167 540.5,440.5C 542.099,440.232 543.432,440.566 544.5,441.5 Z"/></g>
<g><path style="opacity:1" fill="#190f00" d="M 384.5,462.5 C 401.363,507.756 418.03,553.09 434.5,598.5C 429.167,598.5 423.833,598.5 418.5,598.5C 418.5,595.833 418.5,593.167 418.5,590.5C 409.167,590.5 399.833,590.5 390.5,590.5C 390.5,587.833 390.5,585.167 390.5,582.5C 388.167,582.5 385.833,582.5 383.5,582.5C 383.168,542.33 383.501,502.33 384.5,462.5 Z"/></g>
<g><path style="opacity:1" fill="#190f00" d="M 638.5,462.5 C 639.499,502.33 639.832,542.33 639.5,582.5C 635.833,582.5 632.167,582.5 628.5,582.5C 628.5,585.167 628.5,587.833 628.5,590.5C 620.5,590.5 612.5,590.5 604.5,590.5C 604.5,593.167 604.5,595.833 604.5,598.5C 599.167,598.5 593.833,598.5 588.5,598.5C 604.97,553.09 621.637,507.756 638.5,462.5 Z"/></g>
<g><path style="opacity:1" fill="#140c00" d="M 383.5,582.5 C 385.833,582.5 388.167,582.5 390.5,582.5C 390.5,585.167 390.5,587.833 390.5,590.5C 399.833,590.5 409.167,590.5 418.5,590.5C 418.5,593.167 418.5,595.833 418.5,598.5C 423.833,598.5 429.167,598.5 434.5,598.5C 442.449,619.398 450.116,640.398 457.5,661.5C 451.355,662.49 445.022,662.823 438.5,662.5C 438.5,661.167 438.5,659.833 438.5,658.5C 422.5,658.5 406.5,658.5 390.5,658.5C 390.5,657.167 390.5,655.833 390.5,654.5C 388.167,654.5 385.833,654.5 383.5,654.5C 383.5,630.5 383.5,606.5 383.5,582.5 Z"/></g>
<g><path style="opacity:1" fill="#150c00" d="M 639.5,582.5 C 639.5,606.5 639.5,630.5 639.5,654.5C 635.833,654.5 632.167,654.5 628.5,654.5C 628.5,655.833 628.5,657.167 628.5,658.5C 613.833,658.5 599.167,658.5 584.5,658.5C 584.5,659.833 584.5,661.167 584.5,662.5C 577.745,663.123 571.412,662.456 565.5,660.5C 572.796,639.604 580.462,618.937 588.5,598.5C 593.833,598.5 599.167,598.5 604.5,598.5C 604.5,595.833 604.5,593.167 604.5,590.5C 612.5,590.5 620.5,590.5 628.5,590.5C 628.5,587.833 628.5,585.167 628.5,582.5C 632.167,582.5 635.833,582.5 639.5,582.5 Z"/></g>
</svg>
