<?xml version="1.0" encoding="UTF-8"?>
<!DOCTYPE svg PUBLIC "-//W3C//DTD SVG 1.1//EN" "http://www.w3.org/Graphics/SVG/1.1/DTD/svg11.dtd">
<svg xmlns="http://www.w3.org/2000/svg" version="1.1" width="883px" height="265px" style="shape-rendering:geometricPrecision; text-rendering:geometricPrecision; image-rendering:optimizeQuality; fill-rule:evenodd; clip-rule:evenodd" xmlns:xlink="http://www.w3.org/1999/xlink">
<g><path style="opacity:0.998" fill="#fdfdfd" d="M 105.5,24.5 C 121.167,24.5 136.833,24.5 152.5,24.5C 203.917,37.5841 235.917,69.9175 248.5,121.5C 248.5,136.167 248.5,150.833 248.5,165.5C 237.639,212.536 209.306,244.036 163.5,260C 156.41,261.731 149.41,263.231 142.5,264.5C 132.833,264.5 123.167,264.5 113.5,264.5C 66.2026,255.753 33.3693,229.087 15,184.5C 12.4927,176.461 10.326,168.461 8.5,160.5C 8.5,149.5 8.5,138.5 8.5,127.5C 10.0672,121.337 11.4005,115.004 12.5,108.5C 13.0653,104.463 14.3987,100.797 16.5,97.5C 17.9313,96.2196 18.5979,94.5529 18.5,92.5C 18.3284,91.5084 18.6618,90.8417 19.5,90.5C 20.9063,90.0269 21.573,89.0269 21.5,87.5C 21.6596,85.847 22.3263,84.5137 23.5,83.5C 24.9063,83.0269 25.573,82.0269 25.5,80.5C 26.9063,80.0269 27.573,79.0269 27.5,77.5C 31.1912,70.8065 35.8579,64.8065 41.5,59.5C 44.0892,58.5806 46.0892,56.914 47.5,54.5C 52.6364,48.6939 58.6364,44.0272 65.5,40.5C 67.0269,40.573 68.0269,39.9063 68.5,38.5C 68.8417,37.6618 69.5084,37.3284 70.5,37.5C 72.0269,37.573 73.0269,36.9063 73.5,35.5C 73.8417,34.6618 74.5084,34.3284 75.5,34.5C 85.3905,30.5365 95.3905,27.2032 105.5,24.5 Z"/></g>
<g><path style="opacity:0.121" fill="#050505" d="M 152.5,24.5 C 166.433,24.9758 179.433,28.8091 191.5,36C 216.768,50.3528 235.268,70.8528 247,97.5C 248.401,105.415 248.901,113.415 248.5,121.5C 235.917,69.9175 203.917,37.5841 152.5,24.5 Z"/></g>
<g><path style="opacity:0.005" fill="#0b0b0b" d="M 105.5,24.5 C 95.3905,27.2032 85.3905,30.5365 75.5,34.5C 78.4627,32.2145 81.796,30.3812 85.5,29C 91.9722,26.5632 98.6389,25.0632 105.5,24.5 Z"/></g>
<g><path style="opacity:0.035" fill="#535353" d="M 73.5,35.5 C 73.0269,36.9063 72.0269,37.573 70.5,37.5C 70.9731,36.0937 71.9731,35.427 73.5,35.5 Z"/></g>
<g><path style="opacity:0.094" fill="#717171" d="M 68.5,38.5 C 68.0269,39.9063 67.0269,40.573 65.5,40.5C 65.9731,39.0937 66.9731,38.427 68.5,38.5 Z"/></g>
<g><path style="opacity:0.133" fill="#9c9c9c" d="M 47.5,54.5 C 46.0892,56.914 44.0892,58.5806 41.5,59.5C 42.9108,57.086 44.9108,55.4194 47.5,54.5 Z"/></g>
<g><path style="opacity:0.016" fill="#707070" d="M 27.5,77.5 C 27.573,79.0269 26.9063,80.0269 25.5,80.5C 25.427,78.9731 26.0937,77.9731 27.5,77.5 Z"/></g>
<g><path style="opacity:0.063" fill="#5c5c5c" d="M 25.5,80.5 C 25.573,82.0269 24.9063,83.0269 23.5,83.5C 23.427,81.9731 24.0937,80.9731 25.5,80.5 Z"/></g>
<g><path style="opacity:0.024" fill="#4d4d4d" d="M 21.5,87.5 C 21.573,89.0269 20.9063,90.0269 19.5,90.5C 19.427,88.9731 20.0937,87.9731 21.5,87.5 Z"/></g>
<g><path style="opacity:0.008" fill="#000000" d="M 18.5,92.5 C 18.5979,94.5529 17.9313,96.2196 16.5,97.5C 16.4021,95.4471 17.0687,93.7804 18.5,92.5 Z"/></g>
<g><path style="opacity:0.932" fill="#fefefe" d="M 538.5,104.5 C 543.833,104.5 549.167,104.5 554.5,104.5C 554.5,130.167 554.5,155.833 554.5,181.5C 549.167,181.5 543.833,181.5 538.5,181.5C 538.5,155.833 538.5,130.167 538.5,104.5 Z"/></g>
<g><path style="opacity:0.884" fill="#fefefe" d="M 731.5,104.5 C 743.728,102.213 747.728,106.713 743.5,118C 732.29,122.764 727.457,119.264 729,107.5C 730.045,106.627 730.878,105.627 731.5,104.5 Z"/></g>
<g><path style="opacity:1" fill="#b6b6b6" d="M 184.5,110.5 C 170.754,110.185 157.088,110.519 143.5,111.5C 149.966,110.17 156.799,109.503 164,109.5C 171.008,109.5 177.842,109.834 184.5,110.5 Z"/></g>
<g><path style="opacity:0.94" fill="#fefefe" d="M 261.5,109.5 C 268.755,109.187 275.921,109.52 283,110.5C 288.333,127.833 293.667,145.167 299,162.5C 304.832,145.172 310.666,127.839 316.5,110.5C 323.803,109.503 331.137,109.169 338.5,109.5C 338.5,133.5 338.5,157.5 338.5,181.5C 333.5,181.5 328.5,181.5 323.5,181.5C 323.667,164.497 323.5,147.497 323,130.5C 317.397,147.141 311.897,163.808 306.5,180.5C 301.208,181.495 295.875,181.828 290.5,181.5C 285.649,164.101 280.482,146.768 275,129.5C 275.443,146.79 275.61,164.123 275.5,181.5C 270.833,181.5 266.167,181.5 261.5,181.5C 261.5,157.5 261.5,133.5 261.5,109.5 Z"/></g>
<g><path style="opacity:0.943" fill="#fefefe" d="M 601.5,109.5 C 612.505,109.333 623.505,109.5 634.5,110C 645.527,112.867 651.194,120.033 651.5,131.5C 651.759,142.162 647.093,149.662 637.5,154C 630.931,155.629 624.265,156.462 617.5,156.5C 617.5,164.833 617.5,173.167 617.5,181.5C 612.167,181.5 606.833,181.5 601.5,181.5C 601.5,157.5 601.5,133.5 601.5,109.5 Z M 617.5,122.5 C 630.668,119.509 636.168,124.509 634,137.5C 629.417,141.752 623.917,143.752 617.5,143.5C 617.5,136.5 617.5,129.5 617.5,122.5 Z"/></g>
<g><path style="opacity:1" fill="#606060" d="M 72.5,110.5 C 72.5,133.167 72.5,155.833 72.5,178.5C 80.5,178.5 88.5,178.5 96.5,178.5C 96.5,178.833 96.5,179.167 96.5,179.5C 88.1667,179.5 79.8333,179.5 71.5,179.5C 71.1692,156.327 71.5025,133.327 72.5,110.5 Z"/></g>
<g><path style="opacity:1" fill="#010101" d="M 72.5,110.5 C 85.8375,110.333 99.1708,110.5 112.5,111C 117.544,124.636 122.877,138.136 128.5,151.5C 133.897,138.308 138.897,124.974 143.5,111.5C 157.088,110.519 170.754,110.185 184.5,110.5C 184.5,133.5 184.5,156.5 184.5,179.5C 176.167,179.5 167.833,179.5 159.5,179.5C 159.667,161.83 159.5,144.164 159,126.5C 152.598,143.872 146.098,161.205 139.5,178.5C 131.862,179.497 124.196,179.831 116.5,179.5C 111.061,162.624 105.061,145.957 98.5,129.5C 98.5386,128.244 98.0386,127.244 97,126.5C 96.5001,143.83 96.3334,161.163 96.5,178.5C 88.5,178.5 80.5,178.5 72.5,178.5C 72.5,155.833 72.5,133.167 72.5,110.5 Z"/></g>
<g><path style="opacity:0.928" fill="#fefefe" d="M 836.5,114.5 C 840.167,114.5 843.833,114.5 847.5,114.5C 847.5,118.5 847.5,122.5 847.5,126.5C 852.5,126.5 857.5,126.5 862.5,126.5C 862.5,130.167 862.5,133.833 862.5,137.5C 857.5,137.5 852.5,137.5 847.5,137.5C 847.334,147.506 847.5,157.506 848,167.5C 849.822,169.045 851.989,169.712 854.5,169.5C 857.517,169.232 860.517,168.898 863.5,168.5C 864.055,172.997 863.389,177.164 861.5,181C 853.342,183.284 845.342,182.951 837.5,180C 834.246,177.658 832.412,174.491 832,170.5C 831.5,159.505 831.333,148.505 831.5,137.5C 829.167,137.5 826.833,137.5 824.5,137.5C 824.337,135.143 824.503,132.81 825,130.5C 831.997,127.526 835.831,122.193 836.5,114.5 Z"/></g>
<g><path style="opacity:0.014" fill="#040404" d="M 12.5,108.5 C 11.4005,115.004 10.0672,121.337 8.5,127.5C 8.4384,120.762 9.77174,114.429 12.5,108.5 Z"/></g>
<g><path style="opacity:0.933" fill="#fefefe" d="M 368.5,125.5 C 374.842,125.334 381.175,125.5 387.5,126C 394.294,127.146 398.794,130.979 401,137.5C 401.5,152.163 401.667,166.83 401.5,181.5C 397.818,181.665 394.152,181.499 390.5,181C 389.406,179.22 388.406,177.386 387.5,175.5C 384.82,178.682 381.487,180.848 377.5,182C 358.524,185.357 350.357,177.523 353,158.5C 355.451,152.384 359.951,148.884 366.5,148C 373.158,147.5 379.825,147.334 386.5,147.5C 385.864,137.91 380.864,134.743 371.5,138C 368.228,139.723 364.894,140.223 361.5,139.5C 360.03,136.727 358.697,133.894 357.5,131C 360.787,128.3 364.454,126.467 368.5,125.5 Z M 380.5,156.5 C 382.5,156.5 384.5,156.5 386.5,156.5C 386.457,168.678 380.79,172.678 369.5,168.5C 367.925,164.873 368.592,161.707 371.5,159C 374.579,158.027 377.579,157.194 380.5,156.5 Z"/></g>
<g><path style="opacity:0.931" fill="#fefefe" d="M 492.5,125.5 C 516.649,122.65 527.649,133.316 525.5,157.5C 513.833,157.5 502.167,157.5 490.5,157.5C 493.01,169.6 500.343,173.766 512.5,170C 515.713,169.394 518.713,168.227 521.5,166.5C 522.833,170.833 522.833,175.167 521.5,179.5C 520.5,180 519.5,180.5 518.5,181C 485.725,188.214 471.558,175.381 476,142.5C 478.684,133.984 484.184,128.317 492.5,125.5 Z M 496.5,137.5 C 505.204,135.499 509.871,138.832 510.5,147.5C 504.167,147.5 497.833,147.5 491.5,147.5C 491.404,143.269 493.07,139.935 496.5,137.5 Z"/></g>
<g><path style="opacity:0.924" fill="#fefefe" d="M 679.5,125.5 C 708.205,123.716 719.705,137.049 714,165.5C 707.589,180.108 696.422,185.608 680.5,182C 669.661,178.829 663.494,171.662 662,160.5C 658.884,144.063 664.718,132.396 679.5,125.5 Z M 683.5,138.5 C 694.808,137.306 700.142,142.473 699.5,154C 699.215,158.43 698.048,162.597 696,166.5C 692.319,169.36 688.152,170.193 683.5,169C 678.493,163.483 676.66,156.983 678,149.5C 678.253,144.994 680.086,141.327 683.5,138.5 Z"/></g>
<g><path style="opacity:0.927" fill="#fefefe" d="M 785.5,125.5 C 792.391,124.901 799.058,125.735 805.5,128C 809.94,131.376 812.44,135.876 813,141.5C 813.5,154.829 813.667,168.163 813.5,181.5C 808.167,181.5 802.833,181.5 797.5,181.5C 797.667,169.495 797.5,157.495 797,145.5C 796.403,140.452 793.57,138.118 788.5,138.5C 783.504,138.327 780.337,140.66 779,145.5C 777.609,157.447 777.109,169.447 777.5,181.5C 772.167,181.5 766.833,181.5 761.5,181.5C 761.5,163.167 761.5,144.833 761.5,126.5C 765.833,126.5 770.167,126.5 774.5,126.5C 774.687,128.564 775.187,130.564 776,132.5C 778.79,129.535 781.957,127.202 785.5,125.5 Z"/></g>
<g><path style="opacity:0.926" fill="#fefefe" d="M 411.5,127.5 C 417.319,126.347 423.319,126.181 429.5,127C 433.043,131.916 436.21,137.083 439,142.5C 442.624,137.42 446.124,132.253 449.5,127C 455.5,126.333 461.5,126.333 467.5,127C 461.578,135.512 455.912,144.179 450.5,153C 455.746,162.826 461.746,172.16 468.5,181C 462.141,181.831 455.807,181.664 449.5,180.5C 446.167,175.167 442.833,169.833 439.5,164.5C 435.709,169.914 432.043,175.414 428.5,181C 422.5,181.667 416.5,181.667 410.5,181C 416.624,171.919 422.624,162.752 428.5,153.5C 422.809,144.768 417.143,136.102 411.5,127.5 Z"/></g>
<g><path style="opacity:0.932" fill="#fefefe" d="M 728.5,126.5 C 733.833,126.5 739.167,126.5 744.5,126.5C 744.5,144.833 744.5,163.167 744.5,181.5C 739.167,181.5 733.833,181.5 728.5,181.5C 728.5,163.167 728.5,144.833 728.5,126.5 Z"/></g>
<g><path style="opacity:1" fill="#9f9f9f" d="M 98.5,129.5 C 97.8333,146.167 97.1667,162.833 96.5,179.5C 96.5,179.167 96.5,178.833 96.5,178.5C 96.3334,161.163 96.5001,143.83 97,126.5C 98.0386,127.244 98.5386,128.244 98.5,129.5 Z"/></g>
<g><path style="opacity:0.136" fill="#050505" d="M 8.5,160.5 C 10.326,168.461 12.4927,176.461 15,184.5C 33.3693,229.087 66.2026,255.753 113.5,264.5C 104.5,264.5 95.5,264.5 86.5,264.5C 46.6297,246.782 20.7964,216.782 9,174.5C 8.50085,169.845 8.33418,165.179 8.5,160.5 Z"/></g>
<g><path style="opacity:0.383" fill="#060606" d="M 248.5,165.5 C 250.887,181.28 248.054,195.946 240,209.5C 224.617,234.051 203.784,252.384 177.5,264.5C 165.833,264.5 154.167,264.5 142.5,264.5C 149.41,263.231 156.41,261.731 163.5,260C 209.306,244.036 237.639,212.536 248.5,165.5 Z"/></g>
</svg>
