<?xml version="1.0" encoding="UTF-8"?>
<!DOCTYPE svg PUBLIC "-//W3C//DTD SVG 1.1//EN" "http://www.w3.org/Graphics/SVG/1.1/DTD/svg11.dtd">
<svg xmlns="http://www.w3.org/2000/svg" version="1.1" width="905px" height="226px" style="shape-rendering:geometricPrecision; text-rendering:geometricPrecision; image-rendering:optimizeQuality; fill-rule:evenodd; clip-rule:evenodd" xmlns:xlink="http://www.w3.org/1999/xlink">
<g><path style="opacity:0.979" fill="#010000" d="M 95.5,15.5 C 134.992,11.5046 166.159,25.5046 189,57.5C 209.145,93.4432 208.145,128.777 186,163.5C 156.444,199.101 119.611,209.601 75.5,195C 45.9208,182.079 27.0875,159.912 19,128.5C 11.5718,78.1782 30.7385,42.3449 76.5,21C 82.9108,18.9853 89.2442,17.152 95.5,15.5 Z"/></g>
<g><path style="opacity:1" fill="#080400" d="M 83.5,62.5 C 92.5718,62.2297 101.572,62.8963 110.5,64.5C 125.288,60.8755 139.621,62.0422 153.5,68C 156.645,69.9782 159.312,72.4782 161.5,75.5C 169.244,90.0872 171.744,105.754 169,122.5C 165.595,132.909 160.095,142.076 152.5,150C 146.677,153.014 140.844,153.514 135,151.5C 131.223,152.481 127.39,153.148 123.5,153.5C 114.163,152.311 104.829,152.311 95.5,153.5C 95.1924,154.308 94.6924,154.975 94,155.5C 85.1989,155.176 76.6989,153.342 68.5,150C 62.5293,143.37 57.3627,136.204 53,128.5C 49.7415,112.796 50.0748,97.1296 54,81.5C 57.799,76.6994 61.9657,72.1994 66.5,68C 72.0256,65.4708 77.6923,63.6375 83.5,62.5 Z"/></g>
<g><path style="opacity:0.757" fill="#000000" d="M 531.5,62.5 C 535.5,62.5 539.5,62.5 543.5,62.5C 543.5,92.8333 543.5,123.167 543.5,153.5C 539.233,153.797 535.066,153.464 531,152.5C 530.175,122.428 530.342,92.4282 531.5,62.5 Z"/></g>
<g><path style="opacity:0.687" fill="#000000" d="M 733.5,66.5 C 739.967,64.7253 743.633,67.0586 744.5,73.5C 743.622,80.1016 739.955,82.2682 733.5,80C 728.248,75.5062 728.248,71.0062 733.5,66.5 Z"/></g>
<g><path style="opacity:0.791" fill="#000000" d="M 240.5,68.5 C 246.5,68.5 252.5,68.5 258.5,68.5C 266.214,90.1372 274.048,111.804 282,133.5C 291.241,112.281 299.408,90.6142 306.5,68.5C 312.5,68.5 318.5,68.5 324.5,68.5C 324.5,96.8333 324.5,125.167 324.5,153.5C 320.5,153.5 316.5,153.5 312.5,153.5C 312.667,131.497 312.5,109.497 312,87.5C 304.772,109.191 296.772,130.525 288,151.5C 286.302,152.733 284.302,153.4 282,153.5C 279.906,153.464 277.906,153.131 276,152.5C 268.919,131.588 261.252,110.921 253,90.5C 252.667,111.167 252.333,131.833 252,152.5C 248.27,153.46 244.437,153.793 240.5,153.5C 240.5,125.167 240.5,96.8333 240.5,68.5 Z"/></g>
<g><path style="opacity:0.785" fill="#000000" d="M 591.5,68.5 C 604.894,68.0755 618.227,68.5755 631.5,70C 645.978,76.8048 650.812,87.9714 646,103.5C 642.137,112.697 635.303,118.197 625.5,120C 618.508,120.5 611.508,120.666 604.5,120.5C 604.5,131.5 604.5,142.5 604.5,153.5C 600.233,153.797 596.066,153.464 592,152.5C 591.5,124.502 591.333,96.502 591.5,68.5 Z M 604.5,79.5 C 611.589,79.1156 618.589,79.6156 625.5,81C 635.732,87.8354 637.065,96.1688 629.5,106C 621.728,110.1 613.395,111.6 604.5,110.5C 604.5,100.167 604.5,89.8333 604.5,79.5 Z"/></g>
<g><path style="opacity:0.774" fill="#000000" d="M 836.5,74.5 C 839.5,74.5 842.5,74.5 845.5,74.5C 845.5,79.5 845.5,84.5 845.5,89.5C 851.5,89.5 857.5,89.5 863.5,89.5C 863.5,93.1667 863.5,96.8333 863.5,100.5C 857.5,100.5 851.5,100.5 845.5,100.5C 845.099,113.552 845.599,126.552 847,139.5C 847.5,141.333 848.667,142.5 850.5,143C 854.871,143.629 859.204,143.463 863.5,142.5C 863.5,146.167 863.5,149.833 863.5,153.5C 857.203,154.539 850.87,154.706 844.5,154C 838.57,152.403 835.07,148.569 834,142.5C 833.5,128.504 833.333,114.504 833.5,100.5C 830.482,100.665 827.482,100.498 824.5,100C 823.167,97.3333 823.167,94.6667 824.5,92C 827.405,90.9625 830.239,89.7958 833,88.5C 834.795,83.9881 835.961,79.3214 836.5,74.5 Z"/></g>
<g><path style="opacity:0.762" fill="#000000" d="M 358.5,88.5 C 366.238,88.1439 373.905,88.6439 381.5,90C 386.083,92.5899 389.25,96.4232 391,101.5C 391.667,118.5 391.667,135.5 391,152.5C 387.943,153.451 384.777,153.784 381.5,153.5C 381.322,150.784 380.822,148.117 380,145.5C 377.038,149.456 373.204,152.289 368.5,154C 358.986,156.129 350.486,154.295 343,148.5C 335.111,135.431 337.611,124.931 350.5,117C 352.715,115.956 355.048,115.29 357.5,115C 364.826,114.5 372.159,114.334 379.5,114.5C 379.912,101.86 373.912,97.0268 361.5,100C 357.736,100.866 354.069,102.033 350.5,103.5C 349.914,103.291 349.414,102.957 349,102.5C 347.107,99.7327 346.107,96.7327 346,93.5C 350.141,91.5143 354.308,89.8476 358.5,88.5 Z M 369.5,123.5 C 372.833,123.5 376.167,123.5 379.5,123.5C 379.54,138.292 372.207,144.792 357.5,143C 352.548,139.6 351.382,135.1 354,129.5C 354.5,127.667 355.667,126.5 357.5,126C 361.609,125.056 365.609,124.222 369.5,123.5 Z"/></g>
<g><path style="opacity:0.769" fill="#000000" d="M 483.5,88.5 C 500.068,85.0267 511.235,91.0267 517,106.5C 518.162,112.445 518.662,118.445 518.5,124.5C 504.5,124.5 490.5,124.5 476.5,124.5C 478.449,140.582 487.449,146.749 503.5,143C 506.92,142.417 510.087,141.25 513,139.5C 513.772,139.645 514.439,139.978 515,140.5C 515.824,143.882 515.657,147.216 514.5,150.5C 512.667,151.052 511,151.885 509.5,153C 493.286,158.026 479.452,154.526 468,142.5C 460.485,127.65 460.819,112.983 469,98.5C 471.167,96.3333 473.333,94.1667 475.5,92C 478.309,90.9066 480.976,89.7399 483.5,88.5 Z M 486.5,99.5 C 497.509,97.6554 503.842,102.155 505.5,113C 496.173,113.5 486.839,113.666 477.5,113.5C 477.499,106.82 480.499,102.154 486.5,99.5 Z"/></g>
<g><path style="opacity:0.773" fill="#000000" d="M 678.5,88.5 C 703.192,85.3615 716.192,96.1949 717.5,121C 715.609,147.558 701.609,158.225 675.5,153C 668.308,149.808 663.141,144.641 660,137.5C 656.667,126.5 656.667,115.5 660,104.5C 663.609,96.0484 669.775,90.7151 678.5,88.5 Z M 681.5,99.5 C 692.38,97.264 699.547,101.264 703,111.5C 705.405,121.615 703.738,130.948 698,139.5C 696.681,141.487 694.848,142.654 692.5,143C 676.684,144.518 669.351,137.185 670.5,121C 670.518,115.244 671.684,109.744 674,104.5C 676.426,102.548 678.926,100.881 681.5,99.5 Z"/></g>
<g><path style="opacity:0.776" fill="#000000" d="M 783.5,88.5 C 790.574,88.161 797.574,88.661 804.5,90C 809.776,93.0205 813.276,97.5205 815,103.5C 815.667,119.833 815.667,136.167 815,152.5C 811.27,153.46 807.437,153.793 803.5,153.5C 803.785,138.478 803.452,123.478 802.5,108.5C 800.623,101.957 796.29,98.9573 789.5,99.5C 781.002,99.1621 775.835,103.162 774,111.5C 773.5,125.496 773.333,139.496 773.5,153.5C 769.233,153.797 765.066,153.464 761,152.5C 760.5,131.503 760.333,110.503 760.5,89.5C 764.167,89.5 767.833,89.5 771.5,89.5C 771.391,95.4169 772.724,96.2502 775.5,92C 778.374,91.0575 781.04,89.8908 783.5,88.5 Z"/></g>
<g><path style="opacity:0.749" fill="#000000" d="M 401.5,89.5 C 406.544,89.1725 411.544,89.5059 416.5,90.5C 420.752,97.3394 425.252,104.006 430,110.5C 434.761,103.969 439.261,97.3024 443.5,90.5C 448.12,89.5067 452.786,89.1734 457.5,89.5C 457.509,91.3084 457.009,92.9751 456,94.5C 450.025,102.967 444.191,111.467 438.5,120C 444.386,130.282 450.886,140.116 458,149.5C 458.49,150.793 458.657,152.127 458.5,153.5C 454.154,153.666 449.821,153.499 445.5,153C 440.21,145.587 435.043,138.087 430,130.5C 424.801,138.023 419.634,145.523 414.5,153C 409.913,153.799 405.413,153.632 401,152.5C 400.333,151.833 400.333,151.167 401,150.5C 408.452,140.888 415.286,130.888 421.5,120.5C 414.815,110.154 408.148,99.8208 401.5,89.5 Z"/></g>
<g><path style="opacity:0.755" fill="#000000" d="M 730.5,89.5 C 734.833,89.5 739.167,89.5 743.5,89.5C 743.5,110.833 743.5,132.167 743.5,153.5C 739.233,153.797 735.066,153.464 731,152.5C 730.5,131.503 730.333,110.503 730.5,89.5 Z"/></g>
<g><path style="opacity:1" fill="#120d06" d="M 88.5,71.5 C 95.6936,71.9542 102.86,72.6208 110,73.5C 117.28,72.5448 124.447,71.8781 131.5,71.5C 139.696,71.7311 147.362,73.8977 154.5,78C 159.789,82.9809 161.956,89.1476 161,96.5C 161.667,104.833 161.667,113.167 161,121.5C 161.149,133.016 155.649,140.183 144.5,143C 120.081,147.816 95.7474,147.482 71.5,142C 68.2996,140.367 65.4663,138.2 63,135.5C 61.2608,123.034 59.7608,110.534 58.5,98C 58.0231,84.4784 64.3564,76.145 77.5,73C 81.3563,72.8227 85.023,72.3227 88.5,71.5 Z"/></g>
<g><path style="opacity:1" fill="#656565" d="M 134.5,134.5 C 134.5,134.833 134.5,135.167 134.5,135.5C 133.833,123.5 133.167,111.5 132.5,99.5C 132.709,98.0783 133.209,96.745 134,95.5C 134.5,108.496 134.667,121.496 134.5,134.5 Z"/></g>
<g><path style="opacity:1" fill="#cccccc" d="M 87.5,97.5 C 86.5046,109.989 86.1713,122.656 86.5,135.5C 79.6457,135.824 72.979,135.491 66.5,134.5C 72.8333,134.5 79.1667,134.5 85.5,134.5C 85.3334,121.163 85.5001,107.829 86,94.5C 87.0386,95.2438 87.5386,96.2438 87.5,97.5 Z"/></g>
<g><path style="opacity:1" fill="#c8c8c8" d="M 153.5,81.5 C 154.497,99.3256 154.83,117.326 154.5,135.5C 147.833,135.5 141.167,135.5 134.5,135.5C 134.5,135.167 134.5,134.833 134.5,134.5C 140.833,134.5 147.167,134.5 153.5,134.5C 153.5,116.833 153.5,99.1667 153.5,81.5 Z"/></g>
<g><path style="opacity:1" fill="#fcfcfc" d="M 153.5,81.5 C 153.5,99.1667 153.5,116.833 153.5,134.5C 147.167,134.5 140.833,134.5 134.5,134.5C 134.667,121.496 134.5,108.496 134,95.5C 133.209,96.745 132.709,98.0783 132.5,99.5C 128.37,111.22 124.037,122.887 119.5,134.5C 113.202,135.496 106.868,135.83 100.5,135.5C 96.1737,122.844 91.8404,110.177 87.5,97.5C 87.5386,96.2438 87.0386,95.2438 86,94.5C 85.5001,107.829 85.3334,121.163 85.5,134.5C 79.1667,134.5 72.8333,134.5 66.5,134.5C 66.5,116.833 66.5,99.1667 66.5,81.5C 77.1719,81.3335 87.8385,81.5002 98.5,82C 102.463,92.0968 106.296,102.263 110,112.5C 114.391,102.383 118.224,92.0498 121.5,81.5C 132.167,81.5 142.833,81.5 153.5,81.5 Z"/></g>
</svg>
